<mxfile host="app.diagrams.net" modified="2022-11-27T14:09:45.607Z" agent="5.0 (Windows)" etag="ij_GAd0Qb74_NjcyXuVd" version="20.6.0" type="github">
  <diagram id="R2lEEEUBdFMjLlhIrx00" name="Page-1">
    <mxGraphModel dx="799" dy="751" grid="1" gridSize="10" guides="1" tooltips="1" connect="1" arrows="1" fold="1" page="1" pageScale="1" pageWidth="1169" pageHeight="1654" math="0" shadow="0" extFonts="Permanent Marker^https://fonts.googleapis.com/css?family=Permanent+Marker">
      <root>
        <mxCell id="0" />
        <mxCell id="1" parent="0" />
        <mxCell id="DB-9M0OgjcY24ebaJ4Su-6" style="rounded=1;orthogonalLoop=1;jettySize=auto;html=1;entryX=1;entryY=0.5;entryDx=0;entryDy=0;fontFamily=Georgia;endArrow=none;endFill=0;" edge="1" parent="1" source="DB-9M0OgjcY24ebaJ4Su-2" target="DB-9M0OgjcY24ebaJ4Su-3">
          <mxGeometry relative="1" as="geometry" />
        </mxCell>
        <mxCell id="DB-9M0OgjcY24ebaJ4Su-7" style="rounded=1;orthogonalLoop=1;jettySize=auto;html=1;fontFamily=Georgia;entryX=1;entryY=0.5;entryDx=0;entryDy=0;endArrow=none;endFill=0;" edge="1" parent="1" source="DB-9M0OgjcY24ebaJ4Su-2" target="DB-9M0OgjcY24ebaJ4Su-4">
          <mxGeometry relative="1" as="geometry">
            <mxPoint x="230" y="170" as="targetPoint" />
          </mxGeometry>
        </mxCell>
        <mxCell id="DB-9M0OgjcY24ebaJ4Su-8" style="orthogonalLoop=1;jettySize=auto;html=1;entryX=1;entryY=0.5;entryDx=0;entryDy=0;fontFamily=Georgia;endArrow=none;endFill=0;" edge="1" parent="1" source="DB-9M0OgjcY24ebaJ4Su-2" target="DB-9M0OgjcY24ebaJ4Su-5">
          <mxGeometry relative="1" as="geometry" />
        </mxCell>
        <mxCell id="DB-9M0OgjcY24ebaJ4Su-2" value="&lt;font face=&quot;Georgia&quot;&gt;Μηχανικός&lt;/font&gt;" style="rounded=0;whiteSpace=wrap;html=1;" vertex="1" parent="1">
          <mxGeometry x="240" y="120" width="130" height="80" as="geometry" />
        </mxCell>
        <mxCell id="DB-9M0OgjcY24ebaJ4Su-3" value="id" style="ellipse;whiteSpace=wrap;html=1;fontFamily=Georgia;" vertex="1" parent="1">
          <mxGeometry x="40" y="40" width="100" height="60" as="geometry" />
        </mxCell>
        <mxCell id="DB-9M0OgjcY24ebaJ4Su-4" value="&lt;div&gt;Επίθετο&lt;/div&gt;" style="ellipse;whiteSpace=wrap;html=1;fontFamily=Georgia;" vertex="1" parent="1">
          <mxGeometry x="40" y="120" width="100" height="60" as="geometry" />
        </mxCell>
        <mxCell id="DB-9M0OgjcY24ebaJ4Su-5" value="Όνομα" style="ellipse;whiteSpace=wrap;html=1;fontFamily=Georgia;" vertex="1" parent="1">
          <mxGeometry x="40" y="200" width="100" height="60" as="geometry" />
        </mxCell>
        <mxCell id="DB-9M0OgjcY24ebaJ4Su-14" style="edgeStyle=none;rounded=1;orthogonalLoop=1;jettySize=auto;html=1;fontFamily=Georgia;endArrow=none;endFill=0;" edge="1" parent="1" source="DB-9M0OgjcY24ebaJ4Su-10" target="DB-9M0OgjcY24ebaJ4Su-11">
          <mxGeometry relative="1" as="geometry" />
        </mxCell>
        <mxCell id="DB-9M0OgjcY24ebaJ4Su-15" style="edgeStyle=none;rounded=1;orthogonalLoop=1;jettySize=auto;html=1;fontFamily=Georgia;endArrow=none;endFill=0;" edge="1" parent="1" source="DB-9M0OgjcY24ebaJ4Su-10" target="DB-9M0OgjcY24ebaJ4Su-12">
          <mxGeometry relative="1" as="geometry" />
        </mxCell>
        <mxCell id="DB-9M0OgjcY24ebaJ4Su-16" style="edgeStyle=none;rounded=1;orthogonalLoop=1;jettySize=auto;html=1;fontFamily=Georgia;endArrow=none;endFill=0;" edge="1" parent="1" source="DB-9M0OgjcY24ebaJ4Su-10" target="DB-9M0OgjcY24ebaJ4Su-13">
          <mxGeometry relative="1" as="geometry" />
        </mxCell>
        <mxCell id="DB-9M0OgjcY24ebaJ4Su-10" value="Πωλητής" style="rounded=0;whiteSpace=wrap;html=1;" vertex="1" parent="1">
          <mxGeometry x="800" y="100" width="130" height="80" as="geometry" />
        </mxCell>
        <mxCell id="DB-9M0OgjcY24ebaJ4Su-11" value="id" style="ellipse;whiteSpace=wrap;html=1;fontFamily=Georgia;" vertex="1" parent="1">
          <mxGeometry x="1020" y="30" width="100" height="60" as="geometry" />
        </mxCell>
        <mxCell id="DB-9M0OgjcY24ebaJ4Su-12" value="&lt;div&gt;Επίθετο&lt;/div&gt;" style="ellipse;whiteSpace=wrap;html=1;fontFamily=Georgia;" vertex="1" parent="1">
          <mxGeometry x="1020" y="110" width="100" height="60" as="geometry" />
        </mxCell>
        <mxCell id="DB-9M0OgjcY24ebaJ4Su-13" value="Όνομα" style="ellipse;whiteSpace=wrap;html=1;fontFamily=Georgia;" vertex="1" parent="1">
          <mxGeometry x="1020" y="190" width="100" height="60" as="geometry" />
        </mxCell>
        <mxCell id="DB-9M0OgjcY24ebaJ4Su-25" style="edgeStyle=none;rounded=1;orthogonalLoop=1;jettySize=auto;html=1;entryX=0.95;entryY=0.783;entryDx=0;entryDy=0;entryPerimeter=0;fontFamily=Georgia;endArrow=none;endFill=0;" edge="1" parent="1" source="DB-9M0OgjcY24ebaJ4Su-17" target="DB-9M0OgjcY24ebaJ4Su-18">
          <mxGeometry relative="1" as="geometry" />
        </mxCell>
        <mxCell id="DB-9M0OgjcY24ebaJ4Su-26" style="edgeStyle=none;rounded=1;orthogonalLoop=1;jettySize=auto;html=1;entryX=1;entryY=0.5;entryDx=0;entryDy=0;fontFamily=Georgia;endArrow=none;endFill=0;" edge="1" parent="1" source="DB-9M0OgjcY24ebaJ4Su-17" target="DB-9M0OgjcY24ebaJ4Su-19">
          <mxGeometry relative="1" as="geometry" />
        </mxCell>
        <mxCell id="DB-9M0OgjcY24ebaJ4Su-27" style="edgeStyle=none;rounded=1;orthogonalLoop=1;jettySize=auto;html=1;entryX=1;entryY=0.5;entryDx=0;entryDy=0;fontFamily=Georgia;endArrow=none;endFill=0;" edge="1" parent="1" source="DB-9M0OgjcY24ebaJ4Su-17" target="DB-9M0OgjcY24ebaJ4Su-20">
          <mxGeometry relative="1" as="geometry" />
        </mxCell>
        <mxCell id="DB-9M0OgjcY24ebaJ4Su-28" style="edgeStyle=none;rounded=1;orthogonalLoop=1;jettySize=auto;html=1;entryX=0.97;entryY=0.35;entryDx=0;entryDy=0;entryPerimeter=0;fontFamily=Georgia;endArrow=none;endFill=0;" edge="1" parent="1" source="DB-9M0OgjcY24ebaJ4Su-17" target="DB-9M0OgjcY24ebaJ4Su-21">
          <mxGeometry relative="1" as="geometry" />
        </mxCell>
        <mxCell id="DB-9M0OgjcY24ebaJ4Su-29" style="edgeStyle=none;rounded=1;orthogonalLoop=1;jettySize=auto;html=1;entryX=1;entryY=0.5;entryDx=0;entryDy=0;fontFamily=Georgia;endArrow=none;endFill=0;" edge="1" parent="1" source="DB-9M0OgjcY24ebaJ4Su-17" target="DB-9M0OgjcY24ebaJ4Su-22">
          <mxGeometry relative="1" as="geometry" />
        </mxCell>
        <mxCell id="DB-9M0OgjcY24ebaJ4Su-30" style="edgeStyle=none;rounded=1;orthogonalLoop=1;jettySize=auto;html=1;entryX=1;entryY=0.5;entryDx=0;entryDy=0;fontFamily=Georgia;endArrow=none;endFill=0;" edge="1" parent="1" source="DB-9M0OgjcY24ebaJ4Su-17" target="DB-9M0OgjcY24ebaJ4Su-23">
          <mxGeometry relative="1" as="geometry" />
        </mxCell>
        <mxCell id="DB-9M0OgjcY24ebaJ4Su-31" style="edgeStyle=none;rounded=1;orthogonalLoop=1;jettySize=auto;html=1;entryX=1;entryY=0.5;entryDx=0;entryDy=0;fontFamily=Georgia;endArrow=none;endFill=0;" edge="1" parent="1" source="DB-9M0OgjcY24ebaJ4Su-17" target="DB-9M0OgjcY24ebaJ4Su-24">
          <mxGeometry relative="1" as="geometry" />
        </mxCell>
        <mxCell id="DB-9M0OgjcY24ebaJ4Su-17" value="&lt;div&gt;Αυτοκίνητο&lt;/div&gt;" style="rounded=0;whiteSpace=wrap;html=1;" vertex="1" parent="1">
          <mxGeometry x="170" y="470" width="130" height="80" as="geometry" />
        </mxCell>
        <mxCell id="DB-9M0OgjcY24ebaJ4Su-18" value="&lt;div&gt;id&lt;/div&gt;" style="ellipse;whiteSpace=wrap;html=1;fontFamily=Georgia;" vertex="1" parent="1">
          <mxGeometry x="30" y="300" width="100" height="60" as="geometry" />
        </mxCell>
        <mxCell id="DB-9M0OgjcY24ebaJ4Su-19" value="&lt;div&gt;Εταιρία &lt;br&gt;&lt;/div&gt;&lt;div&gt;κατασκευής&lt;br&gt;&lt;/div&gt;" style="ellipse;whiteSpace=wrap;html=1;fontFamily=Georgia;" vertex="1" parent="1">
          <mxGeometry x="30" y="370" width="100" height="60" as="geometry" />
        </mxCell>
        <mxCell id="DB-9M0OgjcY24ebaJ4Su-20" value="Μοντέλο" style="ellipse;whiteSpace=wrap;html=1;fontFamily=Georgia;" vertex="1" parent="1">
          <mxGeometry x="30" y="440" width="100" height="60" as="geometry" />
        </mxCell>
        <mxCell id="DB-9M0OgjcY24ebaJ4Su-21" value="&lt;div&gt;Χρώμα&lt;/div&gt;" style="ellipse;whiteSpace=wrap;html=1;fontFamily=Georgia;" vertex="1" parent="1">
          <mxGeometry x="30" y="510" width="100" height="60" as="geometry" />
        </mxCell>
        <mxCell id="DB-9M0OgjcY24ebaJ4Su-22" value="&lt;div&gt;Έτος&lt;/div&gt;&lt;div&gt;κατασκευής&lt;br&gt;&lt;/div&gt;" style="ellipse;whiteSpace=wrap;html=1;fontFamily=Georgia;" vertex="1" parent="1">
          <mxGeometry x="30" y="580" width="100" height="60" as="geometry" />
        </mxCell>
        <mxCell id="DB-9M0OgjcY24ebaJ4Su-23" value="&lt;div&gt;Σειριακός&lt;/div&gt;&lt;div&gt;Αριθμός&lt;br&gt;&lt;/div&gt;" style="ellipse;whiteSpace=wrap;html=1;fontFamily=Georgia;" vertex="1" parent="1">
          <mxGeometry x="30" y="650" width="100" height="60" as="geometry" />
        </mxCell>
        <mxCell id="DB-9M0OgjcY24ebaJ4Su-24" value="&lt;div&gt;Πώληση&lt;/div&gt;&lt;div&gt;ή&lt;/div&gt;&lt;div&gt;Επισκευή&lt;br&gt;&lt;/div&gt;" style="ellipse;whiteSpace=wrap;html=1;fontFamily=Georgia;" vertex="1" parent="1">
          <mxGeometry x="30" y="767" width="100" height="60" as="geometry" />
        </mxCell>
        <mxCell id="DB-9M0OgjcY24ebaJ4Su-39" style="edgeStyle=none;rounded=1;orthogonalLoop=1;jettySize=auto;html=1;entryX=0;entryY=0.5;entryDx=0;entryDy=0;fontFamily=Georgia;endArrow=none;endFill=0;" edge="1" parent="1" source="DB-9M0OgjcY24ebaJ4Su-32" target="DB-9M0OgjcY24ebaJ4Su-33">
          <mxGeometry relative="1" as="geometry" />
        </mxCell>
        <mxCell id="DB-9M0OgjcY24ebaJ4Su-40" style="edgeStyle=none;rounded=1;orthogonalLoop=1;jettySize=auto;html=1;entryX=0;entryY=0.5;entryDx=0;entryDy=0;fontFamily=Georgia;endArrow=none;endFill=0;" edge="1" parent="1" source="DB-9M0OgjcY24ebaJ4Su-32" target="DB-9M0OgjcY24ebaJ4Su-34">
          <mxGeometry relative="1" as="geometry" />
        </mxCell>
        <mxCell id="DB-9M0OgjcY24ebaJ4Su-41" style="edgeStyle=none;rounded=1;orthogonalLoop=1;jettySize=auto;html=1;fontFamily=Georgia;endArrow=none;endFill=0;" edge="1" parent="1" source="DB-9M0OgjcY24ebaJ4Su-32" target="DB-9M0OgjcY24ebaJ4Su-35">
          <mxGeometry relative="1" as="geometry" />
        </mxCell>
        <mxCell id="DB-9M0OgjcY24ebaJ4Su-42" style="edgeStyle=none;rounded=1;orthogonalLoop=1;jettySize=auto;html=1;entryX=0;entryY=0.5;entryDx=0;entryDy=0;fontFamily=Georgia;endArrow=none;endFill=0;" edge="1" parent="1" source="DB-9M0OgjcY24ebaJ4Su-32" target="DB-9M0OgjcY24ebaJ4Su-36">
          <mxGeometry relative="1" as="geometry" />
        </mxCell>
        <mxCell id="DB-9M0OgjcY24ebaJ4Su-43" style="edgeStyle=none;rounded=1;orthogonalLoop=1;jettySize=auto;html=1;entryX=0;entryY=0.5;entryDx=0;entryDy=0;fontFamily=Georgia;endArrow=none;endFill=0;" edge="1" parent="1" source="DB-9M0OgjcY24ebaJ4Su-32" target="DB-9M0OgjcY24ebaJ4Su-37">
          <mxGeometry relative="1" as="geometry" />
        </mxCell>
        <mxCell id="DB-9M0OgjcY24ebaJ4Su-32" value="Πελάτης" style="rounded=0;whiteSpace=wrap;html=1;" vertex="1" parent="1">
          <mxGeometry x="800" y="450" width="130" height="80" as="geometry" />
        </mxCell>
        <mxCell id="DB-9M0OgjcY24ebaJ4Su-33" value="id" style="ellipse;whiteSpace=wrap;html=1;fontFamily=Georgia;" vertex="1" parent="1">
          <mxGeometry x="1020" y="330" width="100" height="60" as="geometry" />
        </mxCell>
        <mxCell id="DB-9M0OgjcY24ebaJ4Su-34" value="&lt;div&gt;Επίθετο&lt;/div&gt;" style="ellipse;whiteSpace=wrap;html=1;fontFamily=Georgia;" vertex="1" parent="1">
          <mxGeometry x="1020" y="410" width="100" height="60" as="geometry" />
        </mxCell>
        <mxCell id="DB-9M0OgjcY24ebaJ4Su-35" value="Όνομα" style="ellipse;whiteSpace=wrap;html=1;fontFamily=Georgia;" vertex="1" parent="1">
          <mxGeometry x="1020" y="490" width="100" height="60" as="geometry" />
        </mxCell>
        <mxCell id="DB-9M0OgjcY24ebaJ4Su-36" value="&lt;div&gt;Τηλέφωνο&lt;/div&gt;&lt;div&gt;Επικοινωνίας&lt;br&gt;&lt;/div&gt;" style="ellipse;whiteSpace=wrap;html=1;fontFamily=Georgia;" vertex="1" parent="1">
          <mxGeometry x="1020" y="570" width="100" height="60" as="geometry" />
        </mxCell>
        <mxCell id="DB-9M0OgjcY24ebaJ4Su-37" value="&lt;div&gt;Διεύθυνση&lt;/div&gt;" style="ellipse;whiteSpace=wrap;html=1;fontFamily=Georgia;" vertex="1" parent="1">
          <mxGeometry x="1020" y="650" width="100" height="60" as="geometry" />
        </mxCell>
      </root>
    </mxGraphModel>
  </diagram>
</mxfile>
